# xmcd
#
# Track frame offsets:
#	150
#	13162
#	26527
#	39497
#	53150
#	66310
#	80080
#	92465
#	104822
#	118397
#	130957
#	143582
#	157450
#	170470
#	182412
#	197612
#	210840
#	224937
#	237320
#	251332
#	264142
#	278372
#	291387
#
# Disc length: 4056 seconds
#
# Revision: 0
# Processed by: cddbd v1.4PL0 Copyright (c) Steve Scherf et al.
# Submitted via: audiograbber 1.81.03
#
DISCID=580fd617
DTITLE=Tampa Red - Complete Recorded Works in Chronological Order Vol. 12
DYEAR=1941
DGENRE=Blues
TTITLE0=Georgia, Georgia Blues
TTITLE1=I got a Right to be Blue
TTITLE2=Don't Deal with the Devil
TTITLE3=She's Love Crazy
TTITLE4=It's a Low Down Shame
TTITLE5=You'd Better be Ready to Go
TTITLE6=No Baby No
TTITLE7=So Far, So Good
TTITLE8=My First Love Blues
TTITLE9=Gin Head Woman
TTITLE10=Don't Jive it Mama
TTITLE11=Gypsy Lady Blues
TTITLE12=Mean and Evil Woman
TTITLE13=Let Me Play with Your Poodle
TTITLE14=She Want to Sell My Monkey
TTITLE15=You Gonna Miss Me When I'm Gone
TTITLE16=I ain't Fur It
TTITLE17=The Woman I Love
TTITLE18=Detroit Blues
TTITLE19=Sure Enough I Do
TTITLE20=Lulu Mae
TTITLE21=Mercy Mama
TTITLE22=I Can't Get Along With You
EXTD=Complete Recorded Works in Chronological Order Vol. 12  24 June 1941 to 5 
EXTD=July 1945
EXTT0=
EXTT1=
EXTT2=
EXTT3=
EXTT4=
EXTT5=
EXTT6=
EXTT7=
EXTT8=
EXTT9=
EXTT10=
EXTT11=
EXTT12=
EXTT13=
EXTT14=
EXTT15=
EXTT16=
EXTT17=
EXTT18=
EXTT19=
EXTT20=
EXTT21=
EXTT22=
PLAYORDER=
